<svg xmlns="http://www.w3.org/2000/svg" width="1103.257" height="774.412" viewBox="0 0 291.903 204.897"><path d="M21.619 12.837L100.283 0H0z" fill="#eccc0a"/><path d="M21.619 12.837l44.187 9.93L100.283 0z" fill="#d9ca1b"/><path d="M136.86 26.665L193.521 0h-93.239z" fill="#b4c71f"/><path d="M236.154 0l29.255 28.1L291.903 0z" fill="#78c131"/><path d="M0 29.79l21.619-16.953L0 0z" fill="#efcc0f"/><path d="M105.991 25.556l30.868 1.109L100.283 0z" fill="#bcc71f"/><path d="M193.522 0l23.084 36.258L236.154 0z" fill="#91c32a"/><path d="M65.806 22.767l40.185 2.79L100.283 0z" fill="#c4c81d"/><path d="M265.409 28.1l26.494 8.758V0z" fill="#6eba31"/><path d="M136.86 26.665l44.37 7.195L193.522 0z" fill="#a0c227"/><path d="M33.914 39.124l31.892-16.357-44.187-9.93z" fill="#d7ca1c"/><path d="M181.23 33.86l35.376 2.398L193.522 0z" fill="#91bf2a"/><path d="M0 29.79l33.914 9.334L21.62 12.837z" fill="#dfcc1d"/><path d="M84.094 49.75l21.897-24.194-40.185-2.789z" fill="#bbc526"/><path d="M216.606 36.258L265.41 28.1 236.154 0z" fill="#80bd2e"/><path d="M274.313 63.715l17.59-26.857L265.41 28.1z" fill="#68af2f"/><path d="M0 59.943l33.914-20.82L0 29.79z" fill="#d8cc28"/><path d="M241.19 69.536L265.409 28.1l-48.803 8.158z" fill="#76b22e"/><path d="M136.86 26.665l37.924 36.725 6.446-29.53z" fill="#97bc2c"/><path d="M116.473 71.035l20.386-44.37-30.868-1.109z" fill="#abc12a"/><path d="M84.094 49.75l32.379 21.285-10.482-45.479z" fill="#afc22d"/><path d="M33.914 39.124l50.18 10.625-18.288-26.982z" fill="#c4c727"/><path d="M181.23 33.86l17.19 39.606 18.186-37.208z" fill="#87b62e"/><path d="M241.19 69.536l33.122-5.821L265.41 28.1z" fill="#6bab2e"/><path d="M174.784 63.39l23.636 10.076-17.19-39.606z" fill="#88b530"/><path d="M55.613 74.033L84.094 49.75l-50.18-10.625z" fill="#bbc633"/><path d="M136.86 26.665l11.991 56.362 25.933-19.637z" fill="#91b832"/><path d="M116.473 71.035l32.378 11.992-11.992-56.362z" fill="#9abb33"/><path d="M198.42 73.466l42.77-3.93-24.584-33.278z" fill="#78ae30"/><path d="M291.903 88.724V36.858l-17.59 26.857z" fill="#5ea32d"/><path d="M28.826 92.97l26.787-18.937-21.699-34.91z" fill="#b9c83d"/><path d="M0 59.943l28.826 33.026 5.088-53.845z" fill="#c3cb3b"/><path d="M84.094 49.75l11.692 46.469 20.687-25.184z" fill="#a0be3b"/><path d="M55.613 74.033L95.786 96.22 84.094 49.75z" fill="#a6c13f"/><path d="M200.417 98.617l40.773-29.08-42.77 3.93z" fill="#72a733"/><path d="M174.784 63.39l25.633 35.227-1.997-25.15z" fill="#7bac34"/><path d="M158.745 108.21l16.04-44.82-25.934 19.637z" fill="#82af3a"/><path d="M274.313 63.715l-8.056 50.454 25.646-25.445z" fill="#5a982b"/><path d="M241.19 69.536l25.067 44.633 8.055-50.454z" fill="#619e2d"/><path d="M158.745 108.21l41.672-9.593-25.633-35.227z" fill="#7aab39"/><path d="M223.802 115.106l17.388-45.57-40.773 29.081z" fill="#699f33"/><path d="M65.806 117.804l29.98-21.585-40.173-22.186z" fill="#99be4a"/><path d="M0 59.943v60.56l28.826-27.534z" fill="#b5cd50"/><path d="M28.826 92.97l36.98 24.834-10.193-43.77z" fill="#a4c54e"/><path d="M223.802 115.106l42.455-.937-25.067-44.633z" fill="#619930"/><path d="M95.786 96.219l53.065-13.192-32.378-11.992z" fill="#94b93c"/><path d="M120.67 132.495l28.181-49.468L95.786 96.22z" fill="#85b347"/><path d="M120.67 132.495l38.075-24.284-9.894-25.184z" fill="#7dad43"/><path d="M163.542 130.996l36.875-32.379-41.672 9.594z" fill="#71a540"/><path d="M200.417 98.617l8.994 40.473 14.39-23.984z" fill="#629836"/><path d="M239.391 142.088l26.866-27.92-42.455.938z" fill="#568d2f"/><path d="M28.826 92.97l27.087 47.02 9.893-22.186z" fill="#94c360"/><path d="M120.67 132.495l42.872-1.5-4.797-22.784z" fill="#72a749"/><path d="M291.903 147.485V88.724l-25.646 25.445z" fill="#4d8626"/><path d="M163.542 130.996l45.87 8.094-8.995-40.473z" fill="#669c3e"/><path d="M209.411 139.09l29.98 2.998-15.59-26.982z" fill="#598f36"/><path d="M65.806 117.804l26.683 32.379 3.297-53.964z" fill="#88ba58"/><path d="M92.489 150.183l28.181-17.688-24.884-36.276z" fill="#7fb457"/><path d="M0 120.503l55.913 19.487-27.087-47.02z" fill="#9cc862"/><path d="M27.554 154.023l28.359-14.033L0 120.503z" fill="#8bc774"/><path d="M55.913 139.99l36.576 10.193-26.683-32.379z" fill="#81bb65"/><path d="M0 154.08l27.554-.057L0 120.503z" fill="#8dce80"/><path d="M163.542 130.996l26.982 28.18 18.887-20.086z" fill="#5b9442"/><path d="M140.457 160.376l23.085-29.38-42.872 1.499z" fill="#6aa452"/><path d="M239.391 142.088l26.442 19.99.424-47.91z" fill="#4e842d"/><path d="M265.833 162.079l26.07-14.594-25.646-33.316z" fill="#467a25"/><path d="M55.913 139.99L75.7 162.774l16.789-12.591z" fill="#75b76c"/><path d="M209.411 139.09l28.781 20.986 1.2-17.988z" fill="#518735"/><path d="M238.192 160.076l27.64 2.003-26.44-19.99z" fill="#4a7f30"/><path d="M163.542 130.996l5.199 45.074 21.783-16.893z" fill="#599449"/><path d="M140.457 160.376l28.284 15.694-5.2-45.074z" fill="#609c51"/><path d="M55.913 139.99l10.193 35.376 9.594-12.592z" fill="#71b977"/><path d="M106.58 175.966l14.09-43.471-28.181 17.688z" fill="#6dad62"/><path d="M106.58 175.966l33.877-15.59-19.787-27.881z" fill="#66a55c"/><path d="M27.554 154.023l38.552 21.343-10.193-35.376z" fill="#78bf7b"/><path d="M75.7 162.774l30.88 13.192-14.091-25.783z" fill="#6bb06d"/><path d="M190.524 159.177l47.668.9-28.78-20.987z" fill="#528a3c"/><path d="M190.524 159.177l43.171 25.783 4.497-24.884z" fill="#497f39"/><path d="M233.695 184.96l32.138-22.881-27.641-2.003z" fill="#44772f"/><path d="M66.106 175.366l40.473.6-30.88-13.192z" fill="#68b376"/><path d="M265.833 162.079l26.07 42.818v-57.412z" fill="#3d6b21"/><path d="M140.457 160.376l9.593 44.52 18.69-28.826z" fill="#54975b"/><path d="M168.74 176.07l27.48 28.827-5.696-45.72z" fill="#4e8b4c"/><path d="M28.402 204.897l37.704-29.53-38.552-21.344z" fill="#6ec18a"/><path d="M196.22 204.897l37.475-19.937-43.171-25.783z" fill="#467f40"/><path d="M75.7 204.897l30.88-28.931-40.474-.6z" fill="#5eb07e"/><path d="M0 204.897l27.554-50.874L0 154.08z" fill="#7bcd93"/><path d="M0 204.897h28.402l-.848-50.874z" fill="#69caa1"/><path d="M106.58 175.966l43.47 28.93-9.593-44.52z" fill="#599e63"/><path d="M28.402 204.897H75.7l-9.594-29.53z" fill="#5db991"/><path d="M150.05 204.897h46.17l-27.48-28.827z" fill="#488a56"/><path d="M233.695 184.96l58.208 19.937-26.07-42.818z" fill="#3b6926"/><path d="M75.7 204.897h74.35l-43.47-28.931z" fill="#54a375"/><path d="M196.22 204.897h95.683l-58.208-19.937z" fill="#3a6d34"/><path d="M21.619 12.837L100.283 0H0z" fill="#eccc0a"/><path d="M21.619 12.837l44.187 9.93L100.283 0z" fill="#d9ca1b"/><path d="M136.86 26.665L193.521 0h-93.239z" fill="#b4c71f"/><path d="M236.154 0l29.255 28.1L291.903 0z" fill="#78c131"/><path d="M0 29.79l21.619-16.953L0 0z" fill="#efcc0f"/><path d="M105.991 25.556l30.868 1.109L100.283 0z" fill="#bcc71f"/><path d="M193.522 0l23.084 36.258L236.154 0z" fill="#91c32a"/><path d="M65.806 22.767l40.185 2.79L100.283 0z" fill="#c4c81d"/><path d="M265.409 28.1l26.494 8.758V0z" fill="#6eba31"/><path d="M136.86 26.665l44.37 7.195L193.522 0z" fill="#a0c227"/><path d="M33.914 39.124l31.892-16.357-44.187-9.93z" fill="#d7ca1c"/><path d="M181.23 33.86l35.376 2.398L193.522 0z" fill="#91bf2a"/><path d="M0 29.79l33.914 9.334L21.62 12.837z" fill="#dfcc1d"/><path d="M84.094 49.75l21.897-24.194-40.185-2.789z" fill="#bbc526"/><path d="M216.606 36.258L265.41 28.1 236.154 0z" fill="#80bd2e"/><path d="M274.313 63.715l17.59-26.857L265.41 28.1z" fill="#68af2f"/><path d="M0 59.943l33.914-20.82L0 29.79z" fill="#d8cc28"/><path d="M241.19 69.536L265.409 28.1l-48.803 8.158z" fill="#76b22e"/><path d="M136.86 26.665l37.924 36.725 6.446-29.53z" fill="#97bc2c"/><path d="M116.473 71.035l20.386-44.37-30.868-1.109z" fill="#abc12a"/><path d="M84.094 49.75l32.379 21.285-10.482-45.479z" fill="#afc22d"/><path d="M33.914 39.124l50.18 10.625-18.288-26.982z" fill="#c4c727"/><path d="M181.23 33.86l17.19 39.606 18.186-37.208z" fill="#87b62e"/><path d="M241.19 69.536l33.122-5.821L265.41 28.1z" fill="#6bab2e"/><path d="M174.784 63.39l23.636 10.076-17.19-39.606z" fill="#88b530"/><path d="M55.613 74.033L84.094 49.75l-50.18-10.625z" fill="#bbc633"/><path d="M136.86 26.665l11.991 56.362 25.933-19.637z" fill="#91b832"/><path d="M116.473 71.035l32.378 11.992-11.992-56.362z" fill="#9abb33"/><path d="M198.42 73.466l42.77-3.93-24.584-33.278z" fill="#78ae30"/><path d="M291.903 88.724V36.858l-17.59 26.857z" fill="#5ea32d"/><path d="M28.826 92.97l26.787-18.937-21.699-34.91z" fill="#b9c83d"/><path d="M0 59.943l28.826 33.026 5.088-53.845z" fill="#c3cb3b"/><path d="M84.094 49.75l11.692 46.469 20.687-25.184z" fill="#a0be3b"/><path d="M55.613 74.033L95.786 96.22 84.094 49.75z" fill="#a6c13f"/><path d="M200.417 98.617l40.773-29.08-42.77 3.93z" fill="#72a733"/><path d="M174.784 63.39l25.633 35.227-1.997-25.15z" fill="#7bac34"/><path d="M158.745 108.21l16.04-44.82-25.934 19.637z" fill="#82af3a"/><path d="M274.313 63.715l-8.056 50.454 25.646-25.445z" fill="#5a982b"/><path d="M241.19 69.536l25.067 44.633 8.055-50.454z" fill="#619e2d"/><path d="M158.745 108.21l41.672-9.593-25.633-35.227z" fill="#7aab39"/><path d="M223.802 115.106l17.388-45.57-40.773 29.081z" fill="#699f33"/><path d="M65.806 117.804l29.98-21.585-40.173-22.186z" fill="#99be4a"/><path d="M0 59.943v60.56l28.826-27.534z" fill="#b5cd50"/><path d="M28.826 92.97l36.98 24.834-10.193-43.77z" fill="#a4c54e"/><path d="M223.802 115.106l42.455-.937-25.067-44.633z" fill="#619930"/><path d="M95.786 96.219l53.065-13.192-32.378-11.992z" fill="#94b93c"/><path d="M120.67 132.495l28.181-49.468L95.786 96.22z" fill="#85b347"/><path d="M120.67 132.495l38.075-24.284-9.894-25.184z" fill="#7dad43"/><path d="M163.542 130.996l36.875-32.379-41.672 9.594z" fill="#71a540"/><path d="M200.417 98.617l8.994 40.473 14.39-23.984z" fill="#629836"/><path d="M239.391 142.088l26.866-27.92-42.455.938z" fill="#568d2f"/><path d="M28.826 92.97l27.087 47.02 9.893-22.186z" fill="#94c360"/><path d="M120.67 132.495l42.872-1.5-4.797-22.784z" fill="#72a749"/><path d="M291.903 147.485V88.724l-25.646 25.445z" fill="#4d8626"/><path d="M163.542 130.996l45.87 8.094-8.995-40.473z" fill="#669c3e"/><path d="M209.411 139.09l29.98 2.998-15.59-26.982z" fill="#598f36"/><path d="M65.806 117.804l26.683 32.379 3.297-53.964z" fill="#88ba58"/><path d="M92.489 150.183l28.181-17.688-24.884-36.276z" fill="#7fb457"/><path d="M0 120.503l55.913 19.487-27.087-47.02z" fill="#9cc862"/><path d="M27.554 154.023l28.359-14.033L0 120.503z" fill="#8bc774"/><path d="M55.913 139.99l36.576 10.193-26.683-32.379z" fill="#81bb65"/><path d="M0 154.08l27.554-.057L0 120.503z" fill="#8dce80"/><path d="M163.542 130.996l26.982 28.18 18.887-20.086z" fill="#5b9442"/><path d="M140.457 160.376l23.085-29.38-42.872 1.499z" fill="#6aa452"/><path d="M239.391 142.088l26.442 19.99.424-47.91z" fill="#4e842d"/><path d="M265.833 162.079l26.07-14.594-25.646-33.316z" fill="#467a25"/><path d="M55.913 139.99L75.7 162.774l16.789-12.591z" fill="#75b76c"/><path d="M209.411 139.09l28.781 20.986 1.2-17.988z" fill="#518735"/><path d="M238.192 160.076l27.64 2.003-26.44-19.99z" fill="#4a7f30"/><path d="M163.542 130.996l5.199 45.074 21.783-16.893z" fill="#599449"/><path d="M140.457 160.376l28.284 15.694-5.2-45.074z" fill="#609c51"/><path d="M55.913 139.99l10.193 35.376 9.594-12.592z" fill="#71b977"/><path d="M106.58 175.966l14.09-43.471-28.181 17.688z" fill="#6dad62"/><path d="M106.58 175.966l33.877-15.59-19.787-27.881z" fill="#66a55c"/><path d="M27.554 154.023l38.552 21.343-10.193-35.376z" fill="#78bf7b"/><path d="M75.7 162.774l30.88 13.192-14.091-25.783z" fill="#6bb06d"/><path d="M190.524 159.177l47.668.9-28.78-20.987z" fill="#528a3c"/><path d="M190.524 159.177l43.171 25.783 4.497-24.884z" fill="#497f39"/><path d="M233.695 184.96l32.138-22.881-27.641-2.003z" fill="#44772f"/><path d="M66.106 175.366l40.473.6-30.88-13.192z" fill="#68b376"/><path d="M265.833 162.079l26.07 42.818v-57.412z" fill="#3d6b21"/><path d="M140.457 160.376l9.593 44.52 18.69-28.826z" fill="#54975b"/><path d="M168.74 176.07l27.48 28.827-5.696-45.72z" fill="#4e8b4c"/><path d="M28.402 204.897l37.704-29.53-38.552-21.344z" fill="#6ec18a"/><path d="M196.22 204.897l37.475-19.937-43.171-25.783z" fill="#467f40"/><path d="M75.7 204.897l30.88-28.931-40.474-.6z" fill="#5eb07e"/><path d="M0 204.897l27.554-50.874L0 154.08z" fill="#7bcd93"/><path d="M0 204.897h28.402l-.848-50.874z" fill="#69caa1"/><path d="M106.58 175.966l43.47 28.93-9.593-44.52z" fill="#599e63"/><path d="M28.402 204.897H75.7l-9.594-29.53z" fill="#5db991"/><path d="M150.05 204.897h46.17l-27.48-28.827z" fill="#488a56"/><path d="M233.695 184.96l58.208 19.937-26.07-42.818z" fill="#3b6926"/><path d="M75.7 204.897h74.35l-43.47-28.931z" fill="#54a375"/><path d="M196.22 204.897h95.683l-58.208-19.937z" fill="#3a6d34"/></svg>